<svg width="32" height="32" viewBox="0 0 32 32" fill="none" xmlns="http://www.w3.org/2000/svg">
  <!-- Apple-style rounded square background -->
  <rect x="2" y="2" width="28" height="28" rx="6" ry="6" fill="url(#gradient)" stroke="rgba(255, 255, 255, 0.2)" stroke-width="0.5"/>
  
  <!-- Gradient definition -->
  <defs>
    <linearGradient id="gradient" x1="0%" y1="0%" x2="100%" y2="100%">
      <stop offset="0%" stop-color="#FF6B35"/>
      <stop offset="50%" stop-color="#F7931E"/>
      <stop offset="100%" stop-color="#FFD23F"/>
    </linearGradient>
    
    <!-- Inner shadow gradient -->
    <linearGradient id="innerShadow" x1="0%" y1="0%" x2="100%" y2="100%">
      <stop offset="0%" stop-color="rgba(255, 255, 255, 0.3)"/>
      <stop offset="50%" stop-color="rgba(255, 255, 255, 0.1)"/>
      <stop offset="100%" stop-color="rgba(0, 0, 0, 0.1)"/>
    </linearGradient>
  </defs>
  
  <!-- Inner shadow overlay -->
  <rect x="2" y="2" width="28" height="28" rx="6" ry="6" fill="url(#innerShadow)"/>
  
  <!-- Letter R -->
  <path d="M10 8h6c2 0 3.5 1.5 3.5 3.5s-1.5 3.5-3.5 3.5h-3v2l3 4h-3l-2.5-3v3h-3V8zm3 3h3c0.5 0 1-0.5 1-1s-0.5-1-1-1h-3v2z" fill="white" stroke="rgba(255, 255, 255, 0.1)" stroke-width="0.1"/>
  
  <!-- Highlight effect -->
  <rect x="3" y="3" width="26" height="26" rx="5" ry="5" fill="none" stroke="rgba(255, 255, 255, 0.4)" stroke-width="0.5"/>
</svg>
